/* XPM */
static char * isotopec32_xpm[] = {
"32 32 289 2",
"  	c None",
". 	c #EA7D00",
"+ 	c #E97E00",
"@ 	c #E07900",
"# 	c #D57300",
"$ 	c #C76C00",
"% 	c #B26000",
"& 	c #F28200",
"* 	c #FA8C00",
"= 	c #FF9400",
"- 	c #FF9700",
"; 	c #FF9800",
"> 	c #FF9300",
", 	c #F98A00",
"' 	c #E57A00",
") 	c #B86300",
"! 	c #894A00",
"~ 	c #FB8D00",
"{ 	c #FF9C00",
"] 	c #FFA100",
"^ 	c #FFA600",
"/ 	c #FFAE00",
"( 	c #FFB300",
"_ 	c #FFB600",
": 	c #FFB500",
"< 	c #FFB100",
"[ 	c #FFAA00",
"} 	c #FFA000",
"| 	c #FF9100",
"1 	c #EB7C00",
"2 	c #A75900",
"3 	c #FD9200",
"4 	c #FFA800",
"5 	c #FFB000",
"6 	c #FFBC00",
"7 	c #FFC300",
"8 	c #FFC800",
"9 	c #FFCA00",
"0 	c #FFC900",
"a 	c #FFC600",
"b 	c #FFC000",
"c 	c #FFB700",
"d 	c #FFAB00",
"e 	c #FF9B00",
"f 	c #F88400",
"g 	c #B55F00",
"h 	c #FD9000",
"i 	c #FFA200",
"j 	c #FFB400",
"k 	c #FFC200",
"l 	c #FFCC00",
"m 	c #FFD300",
"n 	c #FFD800",
"o 	c #FFD900",
"p 	c #FFD600",
"q 	c #FFD100",
"r 	c #FFBE00",
"s 	c #FFAF00",
"t 	c #FF9D00",
"u 	c #FA8400",
"v 	c #B15C00",
"w 	c #F78800",
"x 	c #FF9E00",
"y 	c #FFD000",
"z 	c #FFDE00",
"A 	c #FFE300",
"B 	c #FFE400",
"C 	c #F0DC34",
"D 	c #F5E05B",
"E 	c #E9D668",
"F 	c #F5E091",
"G 	c #FFBF00",
"H 	c #FF9900",
"I 	c #F17D00",
"J 	c #9C5100",
"K 	c #E47A00",
"L 	c #FF9500",
"M 	c #FFA300",
"N 	c #FFAD00",
"O 	c #FFCD00",
"P 	c #E9DA88",
"Q 	c #F4E471",
"R 	c #FFE700",
"S 	c #FFEA00",
"T 	c #FFEC00",
"U 	c #FFED00",
"V 	c #EEE660",
"W 	c #FDF6B5",
"X 	c #E6DD8A",
"Y 	c #FFED87",
"Z 	c #FFBB00",
"` 	c #FF8F00",
" .	c #D46C00",
"..	c #8F4A00",
"+.	c #F08200",
"@.	c #FFA400",
"#.	c #FFC500",
"$.	c #FFD400",
"%.	c #F0EEE0",
"&.	c #FFF8BC",
"*.	c #FFEB00",
"=.	c #FFF000",
"-.	c #F8EC00",
";.	c #E7E49E",
">.	c #F5F5FF",
",.	c #FFFFFF",
"'.	c #FBFDFF",
").	c #F4EBC3",
"!.	c #F47D00",
"~.	c #B05B00",
"{.	c #FA8900",
"].	c #FF9A00",
"^.	c #FFB800",
"/.	c #FFD700",
"(.	c #FFE200",
"_.	c #FFEE02",
":.	c #FCF000",
"<.	c #EAEAE1",
"[.	c #FFFBC6",
"}.	c #FEF9C2",
"|.	c #FEFFFE",
"1.	c #FFF0A5",
"2.	c #FFB900",
"3.	c #FF8900",
"4.	c #D56D00",
"5.	c #D17100",
"6.	c #FC8900",
"7.	c #FFBA00",
"8.	c #E8CC5F",
"9.	c #EEF3FF",
"0.	c #EDF0FF",
"a.	c #ECEFFF",
"b.	c #E8E476",
"c.	c #FFFFFE",
"d.	c #FFF516",
"e.	c #FFF100",
"f.	c #FFDC16",
"g.	c #FFCE00",
"h.	c #FFBD00",
"i.	c #FF9000",
"j.	c #EA7700",
"k.	c #B35B00",
"l.	c #CB6E00",
"m.	c #F98600",
"n.	c #FDCA10",
"o.	c #FFE774",
"p.	c #F7EEAF",
"q.	c #FFEE00",
"r.	c #EBEBD6",
"s.	c #FFFA78",
"t.	c #FFF400",
"u.	c #FFDB00",
"v.	c #F87E00",
"w.	c #BD6100",
"x.	c #C16800",
"y.	c #EE8100",
"z.	c #FF8D00",
"A.	c #EEDD6F",
"B.	c #ECEEFF",
"C.	c #FFF647",
"D.	c #FFE900",
"E.	c #FD8300",
"F.	c #C76600",
"G.	c #B26100",
"H.	c #E17A00",
"I.	c #F88700",
"J.	c #EEDA6F",
"K.	c #FFE500",
"L.	c #EFF0FF",
"M.	c #FEF353",
"N.	c #FFA700",
"O.	c #FF8500",
"P.	c #CB6800",
"Q.	c #A55A00",
"R.	c #D07100",
"S.	c #EA7E00",
"T.	c #FFA900",
"U.	c #EEB41B",
"V.	c #EDC22E",
"W.	c #E6D585",
"X.	c #EDD419",
"Y.	c #F0EDD9",
"Z.	c #FEF498",
"`.	c #FFE600",
" +	c #CB6700",
".+	c #924F00",
"++	c #BC6600",
"@+	c #FD8A00",
"#+	c #FA9500",
"$+	c #F6FFFF",
"%+	c #F7E561",
"&+	c #FBD400",
"*+	c #EDC30E",
"=+	c #F1CC46",
"-+	c #FF9200",
";+	c #C36400",
">+	c #A25700",
",+	c #BE6700",
"'+	c #EB7D00",
")+	c #FF9201",
"!+	c #FFA408",
"~+	c #FEB719",
"{+	c #FEC119",
"]+	c #FEC919",
"^+	c #FECF19",
"/+	c #FFD312",
"(+	c #FAF5DA",
"_+	c #F9FDFF",
":+	c #F0F6FF",
"<+	c #FFFFF9",
"[+	c #F77E00",
"}+	c #7E4400",
"|+	c #A35800",
"1+	c #CA6C00",
"2+	c #F58200",
"3+	c #FEDF77",
"4+	c #FFF8E4",
"5+	c #FFF7E6",
"6+	c #FFD480",
"7+	c #FFA302",
"8+	c #FF8800",
"9+	c #D86E00",
"0+	c #5E3300",
"a+	c #864800",
"b+	c #A55900",
"c+	c #D37000",
"d+	c #F78300",
"e+	c #EDC866",
"f+	c #FFE399",
"g+	c #EDC878",
"h+	c #FFDB92",
"i+	c #FF9600",
"j+	c #BB5F00",
"k+	c #5C3200",
"l+	c #7D4300",
"m+	c #A95A00",
"n+	c #D16E00",
"o+	c #F27E00",
"p+	c #FF8B00",
"q+	c #F5B641",
"r+	c #FFBC4F",
"s+	c #FBA51D",
"t+	c #FF9D0C",
"u+	c #FD8200",
"v+	c #D16B00",
"w+	c #542D00",
"x+	c #753F00",
"y+	c #A35600",
"z+	c #C66800",
"A+	c #E27600",
"B+	c #F78000",
"C+	c #FF8E00",
"D+	c #FC8000",
"E+	c #4A2800",
"F+	c #673700",
"G+	c #914C00",
"H+	c #C96800",
"I+	c #DB7100",
"J+	c #E97700",
"K+	c #F17B00",
"L+	c #F77D00",
"M+	c #FC8100",
"N+	c #FF8400",
"O+	c #F27A00",
"P+	c #4B2800",
"Q+	c #603300",
"R+	c #804300",
"S+	c #994F00",
"T+	c #AE5900",
"U+	c #C16200",
"V+	c #D06A00",
"W+	c #DC7000",
"X+	c #E57400",
"Y+	c #EC7700",
"Z+	c #E77600",
"`+	c #472600",
" @	c #562E00",
".@	c #753E00",
"+@	c #8E4900",
"@@	c #A15300",
"#@	c #B15B00",
"$@	c #BC6100",
"%@	c #C46400",
"&@	c #AE5A00",
"*@	c #5A3000",
"=@	c #693800",
"-@	c #793F00",
";@	c #834500",
">@	c #884700",
"                                                                ",
"                                                                ",
"                                                                ",
"                                                                ",
"                          . + @ # $ %                           ",
"                    & * = - - ; ; > , ' ) !                     ",
"                  ~ { ] ^ / ( _ : < [ } | 1 2                   ",
"                3 ] 4 5 6 7 8 9 0 a b c d e f g                 ",
"              h i [ j k l m n o n p q 0 r s t u v               ",
"            w x 4 ( 7 y n z A B A C D E F G / H I J             ",
"          K L M N r O P Q R S T U V W X Y 9 Z 4 `  ...          ",
"          +.H @.j #.$.%.&.*.=.-.;.>.,.,.'.).k ( { !.~.          ",
"          {.].@.^.0 /.(.*._.:.<.,.,.[.}.|.1.9 2.@.3.4.          ",
"        5.6.- ^ 7.8.9.0.a.=.b.,.c.d.e.T (.f.g.h.[ i.j.k.        ",
"        l.m.> ^ 2.n.o.p.,.q.r.,.s.t.e.T B u.g.G d | v.w.        ",
"        x.y.z.M _ #.q A.,.T B.,.C.e.q.D.(.n l r [ > E.F.        ",
"        G.H.I.t 5 b l J.,.K.L.,.M.T S K.z $.8 2.N.> O.P.        ",
"        Q.R.S.L T.U.V.W.,.X.Y.,.Z.`.A z n g.k ( ] = O. +        ",
"        .+++# @+#+$+,.,.,.,.,.c.,.%+&+$.*+=+7.d e -+E.;+        ",
"          >+,+'+)+!+~+{+]+^+/+(+,.,._+:+,.<+T.] H ` [+          ",
"          }+|+1+2+> i N _ r 7 7 3+4+,.,.5+6+7+e = 8+9+          ",
"          0+a+b+c+d+| t N.s ( c 2.e+f+g+h+x e i+z.v.j+          ",
"            k+l+m+n+o+p+L t M ^ N.q+r+s+t+- > z.u+v+            ",
"              w+x+y+z+A+B+8+` -+= > i.` i.C+3.D+9+              ",
"                E+F+G+v H+I+J+K+L+M+N+O.O.u+O+v+                ",
"                  P+Q+R+S+T+U+V+W+X+j.Y+Z+W+w.                  ",
"                    `+ @.@+@@@#@$@%@F.;+&@S+                    ",
"                          *@=@-@;@>@>@                          ",
"                                                                ",
"                                                                ",
"                                                                ",
"                                                                "};
