/* XPM */
static char * isotopec64_xpm[] = {
"64 64 642 2",
"  	c None",
". 	c #D37300",
"+ 	c #D07100",
"@ 	c #CB6E00",
"# 	c #C56B00",
"$ 	c #C16900",
"% 	c #BA6500",
"& 	c #E97E00",
"* 	c #EB7F00",
"= 	c #F48400",
"- 	c #F68500",
"; 	c #F38400",
"> 	c #EF8200",
", 	c #E37B00",
"' 	c #DB7700",
") 	c #D17100",
"! 	c #C56A00",
"~ 	c #B26000",
"{ 	c #A55A00",
"] 	c #F08100",
"^ 	c #F68600",
"/ 	c #FF8D00",
"( 	c #FF9000",
"_ 	c #FF9100",
": 	c #FF9300",
"< 	c #FF8F00",
"[ 	c #FE8E00",
"} 	c #FD8B00",
"| 	c #F98700",
"1 	c #F28200",
"2 	c #E77C00",
"3 	c #D77400",
"4 	c #C36900",
"5 	c #A75A00",
"6 	c #8F4E00",
"7 	c #F08200",
"8 	c #FC8B00",
"9 	c #FF9200",
"0 	c #FF9600",
"a 	c #FF9800",
"b 	c #FF9A00",
"c 	c #FF9B00",
"d 	c #FF9D00",
"e 	c #FFA000",
"f 	c #FFA100",
"g 	c #FF9E00",
"h 	c #FE8B00",
"i 	c #F68200",
"j 	c #E37900",
"k 	c #CC6D00",
"l 	c #AA5B00",
"m 	c #824700",
"n 	c #FB8A00",
"o 	c #FF9400",
"p 	c #FF9900",
"q 	c #FF9F00",
"r 	c #FFA500",
"s 	c #FFA900",
"t 	c #FFAC00",
"u 	c #FFAE00",
"v 	c #FFAF00",
"w 	c #FFA600",
"x 	c #FF9500",
"y 	c #F78300",
"z 	c #E17800",
"A 	c #C66900",
"B 	c #9C5400",
"C 	c #F28300",
"D 	c #FFA400",
"E 	c #FFB200",
"F 	c #FFB600",
"G 	c #FFB800",
"H 	c #FFBA00",
"I 	c #FFBB00",
"J 	c #FFBC00",
"K 	c #FFB500",
"L 	c #FFA300",
"M 	c #FF9C00",
"N 	c #FF8A00",
"O 	c #F17E00",
"P 	c #D57000",
"Q 	c #B05D00",
"R 	c #773F00",
"S 	c #FFA700",
"T 	c #FFB400",
"U 	c #FFB900",
"V 	c #FFBD00",
"W 	c #FFC000",
"X 	c #FFC300",
"Y 	c #FFC400",
"Z 	c #FFC500",
"` 	c #F88200",
" .	c #DD7500",
"..	c #BB6200",
"+.	c #834500",
"@.	c #F78600",
"#.	c #FFA200",
"$.	c #FFA800",
"%.	c #FFBE00",
"&.	c #FFC200",
"*.	c #FFC600",
"=.	c #FFC900",
"-.	c #FFCB00",
";.	c #FFCD00",
">.	c #FFCE00",
",.	c #FFCF00",
"'.	c #FFB300",
").	c #FFAD00",
"!.	c #FC8400",
"~.	c #E17600",
"{.	c #BD6300",
"].	c #864600",
"^.	c #FFAA00",
"/.	c #FFC100",
"(.	c #FFCA00",
"_.	c #FFD000",
":.	c #FFD300",
"<.	c #FFD500",
"[.	c #FFD600",
"}.	c #FFD100",
"|.	c #FFC700",
"1.	c #FD8500",
"2.	c #E17500",
"3.	c #BB6100",
"4.	c #814400",
"5.	c #ED8000",
"6.	c #FFC800",
"7.	c #FFD800",
"8.	c #FFDA00",
"9.	c #FFDB00",
"0.	c #FFDC00",
"a.	c #FFD200",
"b.	c #FFBF00",
"c.	c #FFB700",
"d.	c #FFB000",
"e.	c #FB8300",
"f.	c #DC7200",
"g.	c #B35D00",
"h.	c #793F00",
"i.	c #FE8C00",
"j.	c #FFD700",
"k.	c #FFDD00",
"l.	c #FFDF00",
"m.	c #FFE100",
"n.	c #FFE200",
"o.	c #FFDF01",
"p.	c #EDCE0E",
"q.	c #F7D30A",
"r.	c #D0C7A0",
"s.	c #DCDBD8",
"t.	c #FAC91F",
"u.	c #FF8E00",
"v.	c #F67F00",
"w.	c #D36D00",
"x.	c #A45500",
"y.	c #753D00",
"z.	c #FFAB00",
"A.	c #FFD400",
"B.	c #FFE400",
"C.	c #FFE600",
"D.	c #FFE700",
"E.	c #FFE900",
"F.	c #C9CBD7",
"G.	c #F4F6FF",
"H.	c #FFE640",
"I.	c #E0E4FD",
"J.	c #FFFFFF",
"K.	c #FED220",
"L.	c #FF9700",
"M.	c #EC7900",
"N.	c #C56500",
"O.	c #934C00",
"P.	c #E17A00",
"Q.	c #EBC718",
"R.	c #E9C91B",
"S.	c #E9CD1A",
"T.	c #F2D80F",
"U.	c #FFE800",
"V.	c #FFEA00",
"W.	c #FFEB00",
"X.	c #FFEC00",
"Y.	c #E1E0D7",
"Z.	c #FEE83F",
"`.	c #FFE300",
" +	c #DFE3FD",
".+	c #FED620",
"++	c #FD8300",
"@+	c #DD7200",
"#+	c #B45C00",
"$+	c #894700",
"%+	c #F38300",
"&+	c #E0DDCA",
"*+	c #FCFEFF",
"=+	c #FDFEFF",
"-+	c #FDF085",
";+	c #FFED00",
">+	c #FFEE00",
",+	c #FFF500",
"'+	c #DEDDD8",
")+	c #F0E78D",
"!+	c #E1D658",
"~+	c #E8E9F8",
"{+	c #FFDB16",
"]+	c #FF8B00",
"^+	c #F17B00",
"/+	c #C96700",
"(+	c #A95700",
"_+	c #DD7700",
":+	c #FC8A00",
"<+	c #E3DEC4",
"[+	c #FEF280",
"}+	c #FFEF00",
"|+	c #FFF100",
"1+	c #F7EC03",
"2+	c #D5D174",
"3+	c #D8D9E5",
"4+	c #FDFDFC",
"5+	c #FFFFFE",
"6+	c #F1F3FF",
"7+	c #ECE0A8",
"8+	c #F0CA2B",
"9+	c #DC7000",
"0+	c #BD6100",
"a+	c #914B00",
"b+	c #E57C00",
"c+	c #FF8C00",
"d+	c #FFB100",
"e+	c #E8DE9B",
"f+	c #FEF8C7",
"g+	c #FEF9C7",
"h+	c #FFF166",
"i+	c #FFF000",
"j+	c #FFF200",
"k+	c #E0D834",
"l+	c #DDDEEB",
"m+	c #FDFBF5",
"n+	c #EC7800",
"o+	c #CD6900",
"p+	c #AD5900",
"q+	c #FFCC00",
"r+	c #FFD900",
"s+	c #FFF400",
"t+	c #DCD53F",
"u+	c #F2F3FF",
"v+	c #FFE779",
"w+	c #F87E00",
"x+	c #DA6F00",
"y+	c #C26300",
"z+	c #864500",
"A+	c #FFED01",
"B+	c #EAE317",
"C+	c #E9EAFB",
"D+	c #FFFFFA",
"E+	c #FFF992",
"F+	c #FFF675",
"G+	c #FEF473",
"H+	c #FEF380",
"I+	c #FEF7BA",
"J+	c #FEFFFF",
"K+	c #FFD70B",
"L+	c #E47500",
"M+	c #CF6A00",
"N+	c #D47300",
"O+	c #F58400",
"P+	c #D4C071",
"Q+	c #DDE1F5",
"R+	c #DFE2F7",
"S+	c #DFE1F7",
"T+	c #E0E1EE",
"U+	c #FFF900",
"V+	c #D1D0B4",
"W+	c #FFFBAA",
"X+	c #FFF300",
"Y+	c #FFE500",
"Z+	c #FEE000",
"`+	c #FEE861",
" @	c #FF8700",
".@	c #EE7900",
"+@	c #DA7000",
"@@	c #B65D00",
"#@	c #DA7600",
"$@	c #DDE3FC",
"%@	c #FEFEF5",
"&@	c #E5DB1F",
"*@	c #F7F7FF",
"=@	c #FFFDBE",
"-@	c #FF8900",
";@	c #F77D00",
">@	c #E37400",
",@	c #C76600",
"'@	c #B46100",
")@	c #F6D964",
"!@	c #FFFAE1",
"~@	c #FEFBE4",
"{@	c #FFFBE1",
"]@	c #DAD676",
"^@	c #FFF713",
"/@	c #FFDE00",
"(@	c #FD8000",
"_@	c #EB7800",
":@	c #D26C00",
"<@	c #9A4F00",
"[@	c #D87500",
"}@	c #EE8000",
"|@	c #FD8900",
"1@	c #E1E2E3",
"2@	c #DEDCB7",
"3@	c #FFFEDF",
"4@	c #FF8400",
"5@	c #D86E00",
"6@	c #9F5200",
"7@	c #B16000",
"8@	c #D57300",
"9@	c #F88600",
"0@	c #E0E0E1",
"a@	c #DDDDE0",
"b@	c #FFFBA9",
"c@	c #FFE000",
"d@	c #FF8600",
"e@	c #DD7100",
"f@	c #A85600",
"g@	c #AD5E00",
"h@	c #CF7000",
"i@	c #FD8800",
"j@	c #DFE0F2",
"k@	c #FEF993",
"l@	c #FA7F00",
"m@	c #E27300",
"n@	c #B35C00",
"o@	c #A65A00",
"p@	c #C96D00",
"q@	c #EB8000",
"r@	c #F58500",
"s@	c #E0E1EF",
"t@	c #FEF99F",
"u@	c #FC8000",
"v@	c #9C5500",
"w@	c #E47B00",
"x@	c #EE8100",
"y@	c #E4E2D7",
"z@	c #FEFAC7",
"A@	c #FD8100",
"B@	c #E57400",
"C@	c #AE5A00",
"D@	c #B96400",
"E@	c #CD6F00",
"F@	c #E67C00",
"G@	c #E7E1AE",
"H@	c #E47400",
"I@	c #894B00",
"J@	c #AE5E00",
"K@	c #C36A00",
"L@	c #D27200",
"M@	c #E5AC29",
"N@	c #DEC16E",
"O@	c #DFC46E",
"P@	c #DFC76E",
"Q@	c #DFCA68",
"R@	c #E8E8E7",
"S@	c #FFFFF9",
"T@	c #E1D36B",
"U@	c #DFD46E",
"V@	c #E1DAAB",
"W@	c #FCED64",
"X@	c #FC8100",
"Y@	c #AB5700",
"Z@	c #A15700",
"`@	c #C86C00",
" #	c #D37200",
".#	c #FB8800",
"+#	c #F4A007",
"@#	c #E6EEFF",
"##	c #FAE01F",
"$#	c #FEC500",
"%#	c #F97E00",
"&#	c #DB7000",
"*#	c #AC5E00",
"=#	c #BD6700",
"-#	c #F28100",
";#	c #F89A00",
">#	c #F4FCFF",
",#	c #FAFCFF",
"'#	c #EEE082",
")#	c #EECF17",
"!#	c #F9CD00",
"~#	c #E5C01D",
"{#	c #DAC159",
"]#	c #D4D3CD",
"^#	c #FCCE45",
"/#	c #F57C00",
"(#	c #D36C00",
"_#	c #804600",
":#	c #A05600",
"<#	c #BE6700",
"[#	c #CC6E00",
"}#	c #E57B00",
"|#	c #FB8600",
"1#	c #FF9A01",
"2#	c #FEA50E",
"3#	c #FFC149",
"4#	c #FEC549",
"5#	c #FECA49",
"6#	c #FECD49",
"7#	c #FED249",
"8#	c #FED449",
"9#	c #FED749",
"0#	c #FEDA49",
"a#	c #FEDB49",
"b#	c #FEDE49",
"c#	c #FFDF49",
"d#	c #F8FAFF",
"e#	c #FDFFFF",
"f#	c #E9EDFF",
"g#	c #E2E7FF",
"h#	c #EAEEFF",
"i#	c #FBFDFF",
"j#	c #FEE49F",
"k#	c #B95F00",
"l#	c #914E00",
"m#	c #A45900",
"n#	c #D77300",
"o#	c #EE7F00",
"p#	c #FE8900",
"q#	c #FFCD01",
"r#	c #FAD226",
"s#	c #E57500",
"t#	c #A55500",
"u#	c #7C4300",
"v#	c #965100",
"w#	c #A55900",
"x#	c #B05F00",
"y#	c #C76B00",
"z#	c #DE7700",
"A#	c #F48100",
"B#	c #FFC801",
"C#	c #FDCB12",
"D#	c #FCF0BE",
"E#	c #FFF5DE",
"F#	c #FEB01D",
"G#	c #F67D00",
"H#	c #D66E00",
"I#	c #673800",
"J#	c #854800",
"K#	c #A25800",
"L#	c #B66100",
"M#	c #CE6E00",
"N#	c #E47900",
"O#	c #FEC819",
"P#	c #FFDD75",
"Q#	c #FBFBFC",
"R#	c #FFFBEE",
"S#	c #FEF7E3",
"T#	c #FFD781",
"U#	c #FFB61B",
"V#	c #FE8200",
"W#	c #E97700",
"X#	c #B05A00",
"Y#	c #703D00",
"Z#	c #864900",
"`#	c #945000",
" $	c #BC6400",
".$	c #D27000",
"+$	c #E67A00",
"@$	c #F88300",
"#$	c #DFDEDB",
"$$	c #FFC42E",
"%$	c #E2EBFF",
"&$	c #FEB41B",
"*$	c #FF8500",
"=$	c #F57D00",
"-$	c #DD7000",
";$	c #583000",
">$	c #743F00",
",$	c #844700",
"'$	c #904D00",
")$	c #BF6600",
"!$	c #D47000",
"~$	c #F78200",
"{$	c #E1E0DD",
"]$	c #FEC139",
"^$	c #E1EBFE",
"/$	c #FEAC1C",
"($	c #FF8800",
"_$	c #E77500",
":$	c #BE6100",
"<$	c #5A3100",
"[$	c #723E00",
"}$	c #7F4400",
"|$	c #A95A00",
"1$	c #D36F00",
"2$	c #E47800",
"3$	c #F48000",
"4$	c #E0E2E7",
"5$	c #FEB936",
"6$	c #EFC382",
"7$	c #FFB94C",
"8$	c #FF9C04",
"9$	c #4A2800",
"0$	c #5B3200",
"a$	c #6D3B00",
"b$	c #794100",
"c$	c #BD6400",
"d$	c #CF6D00",
"e$	c #E07500",
"f$	c #EE7D00",
"g$	c #FAA718",
"h$	c #FF8200",
"i$	c #A25400",
"j$	c #492700",
"k$	c #572F00",
"l$	c #663700",
"m$	c #764000",
"n$	c #A65700",
"o$	c #B96100",
"p$	c #CA6A00",
"q$	c #D97200",
"r$	c #E77800",
"s$	c #F37E00",
"t$	c #FE8100",
"u$	c #F27B00",
"v$	c #DE7100",
"w$	c #4A2700",
"x$	c #502B00",
"y$	c #5D3200",
"z$	c #733E00",
"A$	c #8B4A00",
"B$	c #A05400",
"C$	c #B25D00",
"D$	c #C26500",
"E$	c #D06D00",
"F$	c #DC7300",
"G$	c #E87800",
"H$	c #F27D00",
"I$	c #FA8100",
"J$	c #FE8500",
"K$	c #FB7F00",
"L$	c #EF7900",
"M$	c #4B2800",
"N$	c #532D00",
"O$	c #6D3A00",
"P$	c #834600",
"Q$	c #974F00",
"R$	c #A85800",
"S$	c #B76000",
"T$	c #C46600",
"U$	c #D06C00",
"V$	c #DA7100",
"W$	c #E37500",
"X$	c #EB7900",
"Y$	c #F27C00",
"Z$	c #F77F00",
"`$	c #FB8100",
" %	c #FC8200",
".%	c #FE8300",
"+%	c #FF8300",
"@%	c #F67C00",
"#%	c #EA7700",
"$%	c #BA5F00",
"%%	c #4F2B00",
"&%	c #643500",
"*%	c #783F00",
"=%	c #8C4900",
"-%	c #9C5100",
";%	c #AA5800",
">%	c #B65E00",
",%	c #C16400",
"'%	c #CA6800",
")%	c #D96F00",
"!%	c #DE7200",
"~%	c #E27400",
"{%	c #E77600",
"]%	c #EB7700",
"^%	c #F17A00",
"/%	c #ED7800",
"(%	c #623400",
"_%	c #723C00",
":%	c #8F4A00",
"<%	c #9B5000",
"[%	c #A65600",
"}%	c #B15B00",
"|%	c #C36400",
"1%	c #CB6700",
"2%	c #E07200",
"3%	c #EA7600",
"4%	c #F07A00",
"5%	c #F47B00",
"6%	c #F37B00",
"7%	c #E97600",
"8%	c #AA5700",
"9%	c #4E2A00",
"0%	c #613400",
"a%	c #703B00",
"b%	c #7F4200",
"c%	c #984F00",
"d%	c #A25300",
"e%	c #BF6200",
"f%	c #C66500",
"g%	c #CD6800",
"h%	c #D26B00",
"i%	c #DF7200",
"j%	c #E37300",
"k%	c #D46C00",
"l%	c #974E00",
"m%	c #4C2900",
"n%	c #5A3000",
"o%	c #6B3900",
"p%	c #7A4000",
"q%	c #924B00",
"r%	c #9D5100",
"s%	c #A65500",
"t%	c #AF5A00",
"u%	c #C86600",
"v%	c #CC6800",
"w%	c #CE6900",
"x%	c #D06A00",
"y%	c #D16B00",
"z%	c #C26400",
"A%	c #984E00",
"B%	c #512B00",
"C%	c #713B00",
"D%	c #7D4100",
"E%	c #884700",
"F%	c #924C00",
"G%	c #A35400",
"H%	c #B45D00",
"I%	c #B85E00",
"J%	c #BB6000",
"K%	c #BA6000",
"L%	c #B75E00",
"M%	c #A75700",
"N%	c #8E4900",
"O%	c #442400",
"P%	c #6C3900",
"Q%	c #824400",
"R%	c #8B4800",
"S%	c #9A5000",
"T%	c #502C00",
"U%	c #522C00",
"V%	c #5F3200",
"W%	c #693800",
"X%	c #6E3A00",
"Y%	c #683700",
"                                                                                                                                ",
"                                                                                                                                ",
"                                                                                                                                ",
"                                                                                                                                ",
"                                                                                                                                ",
"                                                                                                                                ",
"                                                                                                                                ",
"                                                                                                                                ",
"                                                          . + @ # $ %                                                           ",
"                                                  & * = - - ; > & , ' ) ! ~ {                                                   ",
"                                            ] ^ / ( _ : _ ( < ( < [ } | 1 2 3 4 5 6                                             ",
"                                        7 8 9 0 a b c c d e f f f e g b 0 _ h i j k l m                                         ",
"                                      n o p d q f f r s t u v v v u t s w f c x / y z A B                                       ",
"                                  C ( a d f D r s u E F G H I J I H G K E u s L M o N O P Q R                                   ",
"                                ^ : b e D S s u T U V W X Y Z Z Z Y X W V U T v s f p < `  ...+.                                ",
"                              @.o M #.w $.t E U %.&.*.=.-.;.>.,.>.;.-.=.*.X %.U '.).r c _ !.~.{.].                              ",
"                            ; o M #.w ^.).T I /.*.(.>._.:.<.<.[.<.<.:.}.>.-.|.&.V F v w d 9 1.2.3.4.                            ",
"                          5._ b f w ^.).K J X 6.;.}.<.7.8.9.0.0.0.9.8.7.<.a.>.-.*.b.c.d.S d _ e.f.g.h.                          ",
"                          i.a e r s t T J X =.>.:.j.8.k.l.m.n.n.m.m.o.n.p.q.7.r.s.t.b.G v r c u.v.w.x.y.                        ",
"                        C : M L $.z.E I &.=.,.A.7.0.l.n.B.C.C.D.C.C.E.F.G.H.k.I.J.K.Z b.F ).L L.N M.N.O.                        ",
"                      P./ L.q r s u c.b.|.>.Q.R.S.T.B.C.U.E.V.W.V.V.X.Y.J.Z.`. +J..+-.Y V T ^.q 9 ++@+#+$+                      ",
"                      %+9 c e w ^.'.J Y -.:.&+*+=+-+D.E.W.;+>+>+>+>+,+'+J.)+!+~+J.{+_.=./.U d.w b ]+^+/+(+                      ",
"                    _+:+o M #.w t c.W |.>.j.<+J.J.[+E.X.>+}+|+|+1+2+3+4+J.J.J.J.5+6+7+8+*.%.K z.e : ++9+0+a+                    ",
"                    b+c+0 d #.w d+H X =.}.7.e+f+g+h+W.>+i+j+,+k+l+J.J.J.J.J.J.J.J.J.J.m+|.&.U d.D a N n+o+p+                    ",
"                    7 u.L.d f $.E J X q+a.r+k.m.C.V.;+}+j+s+t+u+J.J.J.J.J.J.J.J.J.J.J.v+;.Z J '.$.M < w+x+y+z+                  ",
"                  + ; < 0 M e ^.T V *.>.j.k.`.U.X.i+A+|+j+B+C+J.J.J.J.D+E+F+G+H+I+J+J.K+>.6.b.F z.e : ++L+M+x.                  ",
"                  N+O+u.x c e t K b.6.P+Q+R+R+R+S+T+}+|+U+V+J.J.J.J.W+X+X+i+>+V.Y+Z+`+[._.(./.G u L 0  @.@+@@@                  ",
"                  #@= / o a f t K b.=.$@J.J.J.J.J.%@;+|+&@*@J.J.J.=@,+s+X+i+;+W.D.n.k.j.}.(.&.U v r a -@;@>@,@                  ",
"                '@' 1 ]+9 L.f z.K V Z )@!@~@{@J.J.%@X.i+]@J.J.J.J.^@,+s+j+i+>+V.D.n./@7.}.-.X H d.r p N (@_@:@<@                ",
"                  [@}@|@< x e ^.T V Y q+_.<./@1@J.%@V.j+2@J.J.J.3@s+s+X+|+}+;+V.Y+n.k.7.}.-.X H d+w p ]+4@^+5@6@                ",
"                7@8@& 9@c+9 g s E I &.(._.[./@0@J.%@E.j+a@J.J.J.b@X+X+|+i+>+W.U.Y+c@0.[._.=.&.U d.r p / d@;@e@f@                ",
"                g@h@, C i@( M S d.U /.6.;.:.0.0@J.%@C.|+j@J.J.J.k@|+i+i+>+X.V.D.`.l.8.<.,.6./.U u D p u. @l@m@n@                ",
"                o@p@_+q@r@/ p D ).F %.Y -.}.r+0@J.%@B.;+s@J.J.J.t@}+>+;+X.V.D.Y+m.k.7.:.;.*.%.F ).L L.( -@u@L+@@                ",
"                v@$ 8@w@x@:+0 f ^.'.H &.|.>.[.0@J.%@c@E.y@J.J.J.z@X.W.W.E.D.Y+n./@8.<._.(.Y V T ^.e 0 ( -@A@B@C@                ",
"                  D@E@' F@9@9 M w v F %.Y =.}.0@J.%@0.`.G@J.J.J.J+D.U.U.C.B.n./@9.j.a.>.|./.U d+S d 0 _ -@A@H@(+                ",
"                I@J@K@L@_+x@/ a f ^.M@N@O@P@Q@R@J.S@T@U@V@J.J.J.J.W@Y+`.n.m./@9.7.A.,.=.Y V K ).D c 0 _ -@X@m@Y@                ",
"                  Z@D@`@ #w@.#9 M +#@#J.J.J.J.J.J.J.J.J.J.J.J.J.J.=+##c@/@0.8.j.:.,.;.$#b.U d+s q b x ( -@%#&#                  ",
"                  6 *#=#p@[@-#/ 0 ;#>#J.J.J.J.J.J.J.J.J.J.J.J.J.J.J.,#'#)#<.[.!#~#{#]#^#I T t D d p o <  @/#(#                  ",
"                  _#:#~ <#[#}#|#( 1#2#3#4#5#6#7#8#9#0#a#b#c#d#J.J.J.J.J.e#f#g#h#i#J.J.j#T u S q M a : c+4@.@k#                  ",
"                    l#m#~ <#n#o#p#9 b #.s v K H b.&.*.=.q+q#r#*+J.J.J.J.J.J.J.J.J.J.J.J+^.$.f g b x _ N A@s#t#                  ",
"                    u#v#w#x#y#z#A#]+: c #.$.v '.G J W X Z 6.B#C#D#J.J.J.J.J.J.J.J.J.J.E#F#f g c a : / d@G#H#                    ",
"                    I#J#v#K#L#M#N#y ]+: c f S t d.T G J %.W &.X &.O#P#Q#J.R#S#J.J.T#U##.#.g M a x ( N V#W#X#                    ",
"                      Y#Z#`#K# $.$+$@$]+9 p q D s ).d+T F G I I V V %.#$J.$$v %$J.&$r e d c p 0 9 c+*$=$-$                      ",
"                      ;$>$,$'$5 )$!$+$~$-@( 0 M e r s t u d+'.'.K K K {$J.]$z.^$J./$d c c a 0 9 / ($u@_$:$                      ",
"                        <$[$}$'$|$)$1$2$3$ @/ : a M e L w s ^.z.z.t z.4$J.5$L 6$7$8$p a 0 x _ / ($V#.@M+                        ",
"                        9$0$a$b$l#|$c$d$e$f$e.-@/ : 0 b d q e #.L L #.g$L.d c a 0 x 0 o 9 ( / ($h$^+&#i$                        ",
"                          j$k$l$m$'$n$o$p$q$r$s$!.($c+< : x L.a p p p a 0 o 9 9 9 _ _ ( / ]+ @t$u$v$n@                          ",
"                            w$x$y$z$A$B$C$D$E$F$G$H$I$J$($N c+/ u.< u./ ]+]+/ / u./ c+N ($4@K$L$e@@@                            ",
"                              9$M$N$O$P$Q$R$S$T$U$V$W$X$Y$Z$`$ %.%V#+%4@d@ @ @($($ @d@4@A@@%#%x+$%                              ",
"                                w$M$%%&%*%=%-%;%>%,%'%:@)%!%~%{%]%^%G#l@u@V#h$h$V#A@K$/#/%m@(#X#                                ",
"                                  w$M$x$(%_%4.:%<%[%}%$%|%1%(#x+2%s#3%.@4%u$5%6%^+L$7%~%5@/+8%                                  ",
"                                    w$M$9%0%a%b%=%c%d%p+@@e%f%g%h%5@9+i%m@j%j%m@i%&#k%/+>%l%                                    ",
"                                        w$m%n%o%p%].q%r%s%t%@@0+|%u%v%w%x%y%x%w%/+z%k#A%                                        ",
"                                            j$B%0%C%D%E%F%<%G%;%t%H%I%$%J%K%L%n@M%N%                                            ",
"                                                O%9%y$P%h.Q%R%a+l%S%r%6@r%Q$E%D%                                                ",
"                                                        T%U%V%W%X%O$Y%                                                          ",
"                                                                                                                                ",
"                                                                                                                                ",
"                                                                                                                                ",
"                                                                                                                                ",
"                                                                                                                                ",
"                                                                                                                                ",
"                                                                                                                                ",
"                                                                                                                                "};
