/* XPM */
static char * isotopec16_xpm[] = {
"16 16 103 2",
"  	c None",
". 	c #F78C00",
"+ 	c #F28800",
"@ 	c #E88200",
"# 	c #D77200",
"$ 	c #FC9200",
"% 	c #FFA500",
"& 	c #FFB500",
"* 	c #FFC000",
"= 	c #FFBE00",
"- 	c #FFB200",
"; 	c #FF9600",
"> 	c #BA6100",
", 	c #FA8F00",
"' 	c #FFAA00",
") 	c #FFC300",
"! 	c #FFD600",
"~ 	c #FFDF00",
"{ 	c #FBDC0B",
"] 	c #F7D42C",
"^ 	c #FCC426",
"/ 	c #FF9C00",
"( 	c #B35C00",
"_ 	c #FF9E00",
": 	c #FFB900",
"< 	c #F4DB67",
"[ 	c #FDED53",
"} 	c #FEEE00",
"| 	c #F0E980",
"1 	c #F9F6DA",
"2 	c #FBEA99",
"3 	c #FFB600",
"4 	c #F68600",
"5 	c #EC8000",
"6 	c #FF9F00",
"7 	c #F8C215",
"8 	c #F6E985",
"9 	c #FAEE37",
"0 	c #F1EE9C",
"a 	c #FFFFD0",
"b 	c #FFF459",
"c 	c #FFED76",
"d 	c #FF9B00",
"e 	c #C96500",
"f 	c #DD7700",
"g 	c #FF9A00",
"h 	c #F9E059",
"i 	c #FFF878",
"j 	c #F4F6FF",
"k 	c #FFF520",
"l 	c #FFEE00",
"m 	c #FFC700",
"n 	c #DE7100",
"o 	c #C16900",
"p 	c #FA8E00",
"q 	c #FBB200",
"r 	c #EDCA36",
"s 	c #FCEE79",
"t 	c #F7F8FF",
"u 	c #FFED2C",
"v 	c #FFE500",
"w 	c #FFD700",
"x 	c #E57600",
"y 	c #9F5600",
"z 	c #E17800",
"A 	c #FCB649",
"B 	c #FFE299",
"C 	c #FFE895",
"D 	c #FEF4C1",
"E 	c #FDFBE8",
"F 	c #F8E57B",
"G 	c #F5E7A6",
"H 	c #FFA900",
"I 	c #E37300",
"J 	c #A55900",
"K 	c #F48300",
"L 	c #FFB300",
"M 	c #FFBA00",
"N 	c #F9D66E",
"O 	c #FBEECB",
"P 	c #FFD381",
"Q 	c #FF8B00",
"R 	c #5B3100",
"S 	c #A65800",
"T 	c #EB7B00",
"U 	c #FF8F00",
"V 	c #FDA10F",
"W 	c #FF9F17",
"X 	c #FF9300",
"Y 	c #FF8C00",
"Z 	c #D96F00",
"` 	c #4D2900",
" .	c #874700",
"..	c #BB6000",
"+.	c #DC6F00",
"@.	c #EF7800",
"#.	c #F87E00",
"$.	c #F47D00",
"%.	c #CC6800",
"&.	c #6D3900",
"*.	c #8B4800",
"=.	c #A15300",
"-.	c #AB5800",
"                                ",
"                                ",
"            . + @ #             ",
"        $ % & * = - ; >         ",
"      , ' ) ! ~ { ] ^ / (       ",
"      _ : < [ } | 1 2 3 4       ",
"    5 6 7 8 9 0 a b c ) d e     ",
"    f g * h i j k l ~ m _ n     ",
"    o p q r s t u v w = / x     ",
"    y z A B C D E F G H ; I     ",
"      J K 6 L M N O P d Q       ",
"      R S T U d V W X Y Z       ",
"        `  ...+.@.#.$.%.        ",
"            &.*.=.-.            ",
"                                ",
"                                "};
